<?xml version="1.0" standalone="no"?>
<!DOCTYPE svg PUBLIC "-//W3C//DTD SVG 20010904//EN"
 "http://www.w3.org/TR/2001/REC-SVG-20010904/DTD/svg10.dtd">
<svg version="1.0" xmlns="http://www.w3.org/2000/svg"
 width="584.000000pt" height="584.000000pt" viewBox="0 0 584.000000 584.000000"
 preserveAspectRatio="xMidYMid meet">

<g transform="translate(0.000000,584.000000) scale(0.100000,-0.100000)"
fill="#000000" stroke="none">
<path d="M2470 4800 c0 -11 11 -37 24 -58 24 -38 41 -81 38 -94 -3 -12 26 -10
33 2 8 13 -5 81 -15 75 -4 -3 -22 18 -40 45 -18 28 -34 50 -36 50 -2 0 -4 -9
-4 -20z"/>
<path d="M2950 4736 c0 -2 8 -10 18 -17 15 -13 16 -12 3 4 -13 16 -21 21 -21
13z"/>
<path d="M2750 4701 c-30 -10 -86 -34 -125 -54 -38 -19 -105 -52 -147 -73
-134 -63 -218 -177 -218 -293 0 -48 17 -105 38 -132 l18 -22 40 21 c21 12 96
44 165 71 182 71 333 175 390 268 25 41 33 38 18 -6 -6 -18 -24 -38 -40 -46
-35 -18 -72 -66 -99 -128 -18 -39 -30 -52 -78 -77 -31 -16 -51 -29 -43 -30 7
0 45 17 84 38 40 20 75 37 80 37 4 0 17 11 30 25 31 36 82 78 72 60 -21 -37
-58 -79 -97 -110 -24 -18 -37 -27 -30 -20 6 8 12 19 12 24 0 6 -11 -2 -25 -17
-14 -15 -30 -27 -36 -27 -6 0 -8 -4 -5 -8 3 -5 -17 -20 -45 -32 -28 -13 -53
-28 -56 -33 -3 -5 9 -1 26 8 27 13 34 14 51 2 11 -8 17 -17 12 -22 -4 -4 3 -3
15 4 29 15 38 14 24 -2 -6 -8 -29 -22 -51 -32 -22 -10 -38 -20 -36 -22 4 -5
119 49 126 59 3 4 38 9 78 10 40 2 72 7 72 12 0 4 -27 6 -59 4 l-60 -4 59 63
c67 71 123 166 141 236 10 42 14 47 33 41 31 -9 105 -83 128 -129 11 -22 23
-67 26 -100 l4 -61 -38 -11 c-22 -6 -58 -14 -81 -18 -38 -6 -41 -8 -27 -22 13
-14 17 -14 33 1 10 9 34 16 53 16 20 0 39 6 41 13 3 6 6 3 7 -8 0 -15 5 -11
16 15 19 43 12 108 -17 174 -11 26 -17 51 -13 58 4 6 3 8 -3 5 -6 -4 -16 0
-23 8 -7 8 -9 15 -4 15 5 0 -11 14 -36 30 -25 16 -53 30 -63 30 -21 0 -47 23
-47 42 0 7 -5 20 -10 28 -6 10 -9 -1 -8 -35 1 -71 -10 -115 -28 -108 -9 3 -11
9 -5 17 15 18 24 76 12 76 -6 0 -11 -5 -11 -11 0 -33 -34 -121 -48 -126 -10
-3 -25 -13 -34 -21 -22 -19 -23 -4 -2 26 8 12 24 22 35 22 21 0 26 16 7 22 -9
3 -9 12 0 38 7 18 12 45 12 60 0 15 6 33 14 39 21 18 36 66 25 82 -10 16 -10
15 -15 -25 -2 -16 -8 -34 -15 -40 -9 -8 -10 -6 -5 8 9 27 -31 86 -70 102 -43
18 -76 17 -144 -5z m287 -253 c-3 -8 -6 -5 -6 6 -1 11 2 17 5 13 3 -3 4 -12 1
-19z m-42 -65 c-5 -15 -9 -34 -11 -40 -7 -34 -63 -105 -126 -160 -32 -27 -44
-31 -79 -28 -23 2 -43 6 -46 8 -2 3 21 19 51 36 30 18 76 52 101 76 64 63 35
12 -35 -62 -33 -34 -43 -49 -25 -36 53 37 104 97 135 157 16 33 30 66 30 74 0
9 3 13 6 9 4 -3 3 -19 -1 -34z m-122 -4 c-10 -17 -27 -38 -37 -47 -24 -21 -14
-2 23 45 33 41 37 42 14 2z m-13 -53 c0 -2 -8 -10 -17 -17 -16 -13 -17 -12 -4
4 13 16 21 21 21 13z"/>
<path d="M3190 4490 c0 -5 5 -10 11 -10 5 0 7 5 4 10 -3 6 -8 10 -11 10 -2 0
-4 -4 -4 -10z"/>
<path d="M3116 4436 c6 -15 3 -17 -14 -12 -17 6 -14 -3 21 -57 23 -35 43 -63
45 -61 2 1 -8 25 -22 53 -34 65 -33 71 5 35 36 -34 56 -69 68 -121 8 -36 9
-36 10 -8 1 44 -31 104 -78 150 -25 23 -39 32 -35 21z"/>
<path d="M3266 4405 c24 -39 24 -40 24 -28 0 6 -9 21 -21 34 l-20 24 17 -30z"/>
<path d="M4825 4329 c-40 -5 -33 -6 38 -6 102 -1 129 -14 76 -38 -31 -15 -18
-14 30 1 16 5 19 -2 25 -61 7 -69 -4 -132 -31 -173 -8 -13 -12 -26 -9 -29 8
-9 43 70 51 116 4 23 4 72 0 107 -5 52 -11 66 -28 76 -25 13 -81 16 -152 7z"/>
<path d="M4678 4303 c7 -3 16 -2 19 1 4 3 -2 6 -13 5 -11 0 -14 -3 -6 -6z"/>
<path d="M4628 4293 c7 -3 16 -2 19 1 4 3 -2 6 -13 5 -11 0 -14 -3 -6 -6z"/>
<path d="M4580 4280 c-8 -5 -10 -10 -5 -10 6 0 17 5 25 10 8 5 11 10 5 10 -5
0 -17 -5 -25 -10z"/>
<path d="M4703 4233 c9 -2 23 -2 30 0 6 3 -1 5 -18 5 -16 0 -22 -2 -12 -5z"/>
<path d="M4502 4205 c0 -16 2 -22 5 -12 2 9 2 23 0 30 -3 6 -5 -1 -5 -18z"/>
<path d="M4608 4223 c7 -3 16 -2 19 1 4 3 -2 6 -13 5 -11 0 -14 -3 -6 -6z"/>
<path d="M4537 4167 c-6 -17 39 -129 64 -156 11 -12 17 -26 13 -32 -17 -27
-104 102 -104 155 0 14 -4 27 -8 30 -5 3 -5 -19 -1 -48 8 -59 50 -136 80 -143
23 -6 24 -12 2 -42 -9 -14 -11 -21 -5 -17 6 4 25 26 42 50 18 24 42 49 56 56
13 7 27 23 30 34 7 20 7 20 14 1 13 -36 -5 -113 -36 -153 -36 -45 -83 -116
-57 -85 10 11 31 37 46 57 17 22 37 36 50 36 16 0 18 3 8 9 -20 13 -4 31 29
31 16 0 32 5 35 10 4 7 13 7 25 0 15 -8 29 -6 58 9 30 16 44 32 65 78 14 32
29 75 32 96 l7 37 -220 0 c-169 0 -221 -3 -225 -13z"/>
<path d="M3211 4144 c0 -11 3 -14 6 -6 3 7 2 16 -1 19 -3 4 -6 -2 -5 -13z"/>
<path d="M2590 4110 c-8 -5 -10 -10 -5 -10 6 0 17 5 25 10 8 5 11 10 5 10 -5
0 -17 -5 -25 -10z"/>
<path d="M3222 4090 c0 -19 2 -27 5 -17 2 9 2 25 0 35 -3 9 -5 1 -5 -18z"/>
<path d="M2432 4098 c10 -25 -28 -113 -53 -125 -13 -7 -18 -13 -11 -13 22 0
13 -14 -50 -79 -35 -36 -53 -59 -41 -53 21 12 133 130 133 142 0 3 16 4 35 2
24 -3 35 -9 36 -21 0 -12 2 -12 9 4 14 33 12 36 -30 29 -43 -7 -49 1 -29 38
16 30 21 88 8 88 -6 0 -9 -6 -7 -12z"/>
<path d="M2658 4083 c-27 -14 -46 -28 -45 -30 5 -4 97 47 97 53 0 6 -1 5 -52
-23z"/>
<path d="M2378 4084 c-28 -14 -38 -34 -18 -34 6 0 10 4 10 10 0 5 12 16 28 24
15 8 23 15 17 15 -5 0 -22 -7 -37 -15z"/>
<path d="M2510 4080 c-8 -5 -10 -10 -5 -10 6 0 17 5 25 10 8 5 11 10 5 10 -5
0 -17 -5 -25 -10z"/>
<path d="M2630 4044 c-30 -16 -65 -20 -40 -4 24 16 7 11 -54 -14 -38 -15 -53
-25 -43 -29 20 -7 67 5 66 18 0 5 4 11 10 13 6 2 11 -1 11 -7 0 -16 11 -14 55
14 42 26 38 33 -5 9z"/>
<path d="M2384 4034 c-18 -14 -18 -15 4 -4 12 6 22 13 22 15 0 8 -5 6 -26 -11z"/>
<path d="M2228 4033 c7 -3 16 -2 19 1 4 3 -2 6 -13 5 -11 0 -14 -3 -6 -6z"/>
<path d="M2345 4020 c-4 -12 -5 -24 -2 -27 3 -2 8 5 12 17 4 12 5 24 2 27 -3
2 -8 -5 -12 -17z"/>
<path d="M3233 3945 c-1 -184 -55 -309 -159 -368 -42 -24 -57 -27 -101 -22
-114 12 -232 94 -316 220 -22 33 -37 50 -34 38 7 -30 -1 -29 -58 9 -31 21 -54
46 -66 72 -10 23 -19 33 -19 23 0 -10 5 -28 11 -40 9 -16 9 -22 0 -25 -6 -2
-11 -18 -11 -35 0 -38 -39 -125 -66 -148 -10 -9 -32 -24 -49 -32 -16 -9 -26
-16 -21 -17 4 0 35 14 67 31 76 41 93 67 91 141 -1 32 0 58 2 58 2 0 18 -13
37 -29 32 -28 33 -33 34 -98 0 -37 -4 -86 -8 -108 l-8 -40 17 29 c11 19 17 55
18 103 1 55 4 73 15 73 11 0 13 -13 8 -63 -7 -72 -35 -144 -67 -171 -27 -22
-119 -66 -139 -66 -8 0 -12 -3 -9 -6 8 -7 87 16 114 33 12 8 27 12 35 11 7 -2
18 7 24 20 7 13 16 23 21 23 5 0 8 6 6 14 -1 7 3 17 9 21 8 4 9 3 5 -4 -4 -7
-3 -12 1 -12 5 0 17 32 27 72 17 65 20 70 32 53 8 -10 14 -41 14 -67 0 -104
-80 -197 -190 -219 l-35 -7 38 -1 c63 -2 129 43 185 125 7 10 10 13 7 7 -6
-12 -15 -62 -17 -91 -2 -22 -76 -66 -111 -65 -18 0 -57 4 -88 8 -77 10 -147
-13 -189 -63 -30 -37 -30 -37 -19 -7 6 16 22 46 37 65 21 28 22 31 4 16 -27
-24 -62 -95 -62 -127 0 -14 -12 -54 -26 -90 -14 -35 -27 -73 -29 -84 -9 -55
-88 -213 -115 -230 -5 -3 -10 -11 -10 -17 0 -7 17 8 37 31 l36 43 71 -7 c174
-16 288 -74 317 -162 10 -31 31 -43 43 -25 10 17 -16 87 -42 115 -57 61 -190
107 -311 107 -56 0 -62 2 -57 18 4 9 17 43 29 76 l22 58 52 -5 c28 -3 71 -14
95 -25 52 -23 188 -138 221 -187 26 -38 37 -36 37 6 0 21 -18 44 -82 103 -96
89 -159 123 -246 132 -51 6 -61 10 -57 23 3 9 13 39 23 66 l18 50 55 -1 c96
-2 199 -68 258 -164 33 -53 51 -63 51 -30 0 98 -182 237 -297 228 -24 -2 -43
0 -43 4 0 12 61 58 87 64 38 10 143 -2 156 -18 15 -19 63 -48 77 -48 7 0 9 8
5 20 -6 18 -4 19 20 10 51 -19 62 -13 94 52 17 33 31 71 32 82 0 12 4 30 9 41
6 15 9 6 9 -33 1 -33 -3 -51 -9 -47 -6 3 -7 -1 -4 -10 11 -27 -5 -64 -34 -79
-25 -14 -26 -15 -5 -16 23 0 71 45 85 78 6 16 13 -43 9 -75 -1 -7 3 -13 9 -13
16 0 11 79 -11 160 -36 131 -35 125 -8 107 13 -8 42 -21 65 -27 36 -11 43 -18
58 -59 22 -60 108 -177 149 -201 47 -29 57 -24 19 9 l-34 28 37 23 c27 17 46
41 68 88 26 56 31 81 38 191 4 69 14 160 21 201 l14 75 24 -45 c13 -25 32 -70
42 -100 13 -38 17 -44 13 -20 -3 19 -22 71 -41 115 -52 115 -53 117 -57 150
-1 17 -3 -15 -4 -70z m-767 -237 c-18 -26 -22 -17 -5 14 6 11 13 17 16 15 3
-3 -2 -16 -11 -29z m739 -90 c-3 -94 -26 -164 -69 -215 -35 -39 -71 -59 -81
-43 -6 9 19 32 28 25 4 -3 5 -2 2 1 -2 4 16 32 40 63 54 69 63 91 64 164 0 52
5 77 16 77 1 0 2 -33 0 -72z m-474 25 c13 -16 12 -17 -3 -4 -10 7 -18 15 -18
17 0 8 8 3 21 -13z m445 -42 c-1 -27 -5 -53 -9 -57 -4 -4 -5 8 -2 27 6 32 4
31 -22 -17 -40 -73 -71 -110 -84 -97 -6 6 1 17 21 33 32 25 42 57 14 46 -14
-6 -15 -4 -4 9 10 11 15 13 20 4 10 -15 21 2 25 37 2 19 30 64 40 64 1 0 1
-22 1 -49z m-459 -68 c-2 -16 -4 -3 -4 27 0 30 2 43 4 28 2 -16 2 -40 0 -55z
m29 -15 c-4 -29 -9 -66 -12 -83 -9 -66 -47 -90 -119 -75 l-30 6 37 16 c67 30
118 103 118 171 0 9 3 17 6 17 4 0 4 -24 0 -52z m304 17 c-7 -9 -27 -26 -44
-38 l-31 -22 25 32 c14 17 32 34 40 36 8 3 17 5 19 6 2 0 -2 -6 -9 -14z m-66
-20 c-4 -8 -10 -15 -14 -15 -4 0 -10 7 -14 15 -4 10 1 15 14 15 13 0 18 -5 14
-15z m-283 -42 c-12 -20 -14 -14 -5 12 4 9 9 14 11 11 3 -2 0 -13 -6 -23z
m106 -30 c-3 -10 -5 -4 -5 12 0 17 2 24 5 18 2 -7 2 -21 0 -30z m213 23 c0 -2
-7 -7 -16 -10 -8 -3 -12 -2 -9 4 6 10 25 14 25 6z m84 -18 c-47 -55 -63 -68
-70 -57 -4 7 1 16 10 21 9 5 28 20 44 33 34 31 41 32 16 3z m-59 -15 c-20 -14
-35 -17 -35 -7 0 12 35 32 44 27 5 -4 1 -12 -9 -20z"/>
<path d="M2173 4023 c9 -2 23 -2 30 0 6 3 -1 5 -18 5 -16 0 -22 -2 -12 -5z"/>
<path d="M2058 4013 c18 -2 45 -2 60 0 15 2 0 4 -33 4 -33 0 -45 -2 -27 -4z"/>
<path d="M2138 3983 c7 -3 16 -2 19 1 4 3 -2 6 -13 5 -11 0 -14 -3 -6 -6z"/>
<path d="M4967 3961 c-4 -17 -3 -21 5 -13 5 5 8 16 6 23 -3 8 -7 3 -11 -10z"/>
<path d="M2453 3907 c-1 -28 -8 -68 -17 -88 -19 -46 -85 -104 -149 -131 -26
-11 -46 -22 -44 -25 8 -7 101 38 147 72 60 44 80 86 80 164 0 74 -14 82 -17 8z"/>
<path d="M2432 3922 c-3 -56 -30 -88 -117 -137 -109 -61 -151 -101 -161 -151
-3 -21 -13 -52 -21 -69 -17 -34 -9 -27 32 30 16 22 21 34 12 26 -22 -18 -22
-1 -1 42 21 39 47 60 148 117 96 54 119 82 113 136 -3 37 -4 37 -5 6z"/>
<path d="M4760 3904 c-56 -44 -72 -60 -45 -45 22 12 103 81 95 81 -3 0 -25
-16 -50 -36z"/>
<path d="M4929 3903 l-24 -28 28 24 c25 23 32 31 24 31 -2 0 -14 -12 -28 -27z"/>
<path d="M2871 3881 c10 -22 22 -65 25 -96 12 -101 62 -130 145 -83 39 21 57
48 20 28 -37 -19 -90 -12 -116 16 -20 22 -60 112 -52 120 1 1 27 -13 57 -31
51 -31 91 -40 159 -36 21 1 -17 41 -40 41 -10 0 -21 5 -24 10 -4 6 -15 8 -26
5 -26 -9 -112 21 -134 45 -29 32 -35 23 -14 -19z"/>
<path d="M4506 3835 c-83 -96 -117 -218 -131 -455 -14 -254 -46 -430 -107
-587 -38 -98 -49 -115 -63 -93 -6 9 -220 139 -330 200 -33 18 -93 59 -132 91
-40 33 -73 55 -73 50 0 -20 141 -131 230 -181 133 -74 314 -182 321 -193 3 -4
27 45 53 110 55 139 92 307 106 483 6 69 12 145 15 170 2 25 7 79 10 120 9 90
54 217 98 268 56 67 60 72 55 72 -3 0 -27 -25 -52 -55z"/>
<path d="M4973 3863 c9 -2 17 -8 17 -12 0 -19 -39 -57 -93 -92 -58 -37 -69
-53 -18 -25 14 8 31 12 38 9 8 -3 13 -2 12 3 -2 5 16 28 39 52 49 51 54 73 15
71 -17 -1 -21 -3 -10 -6z"/>
<path d="M4641 3795 c-23 -25 -41 -53 -39 -63 1 -9 -1 -23 -6 -30 -5 -9 -1
-15 13 -19 12 -3 21 -9 21 -14 0 -5 8 -5 18 -2 15 6 15 5 3 -10 -16 -21 -15
-23 21 -32 21 -5 29 -3 34 10 4 10 1 21 -7 26 -9 6 -10 12 -4 17 6 4 12 18 13
31 3 18 0 22 -12 18 -8 -3 -18 -2 -21 3 -4 6 -1 10 6 10 7 0 9 3 6 7 -4 3 1
15 10 26 17 19 17 20 -7 15 -14 -3 -34 -9 -45 -13 -14 -6 -10 3 14 28 19 21
32 37 29 37 -3 0 -24 -20 -47 -45z m9 -61 c0 -2 -9 -4 -21 -4 -11 0 -18 4 -14
10 5 8 35 3 35 -6z m-20 -34 c0 -5 -4 -10 -10 -10 -5 0 -10 5 -10 10 0 6 5 10
10 10 6 0 10 -4 10 -10z"/>
<path d="M2138 3823 c6 -2 18 -2 25 0 6 3 1 5 -13 5 -14 0 -19 -2 -12 -5z"/>
<path d="M2217 3794 c-15 -13 -24 -24 -20 -24 11 1 57 40 52 44 -2 3 -17 -7
-32 -20z"/>
<path d="M2538 3752 c9 -95 -48 -148 -233 -217 -119 -44 -147 -58 -166 -81
-10 -13 -6 -12 16 4 17 11 82 40 145 63 188 68 260 125 260 205 0 45 -8 74
-20 74 -4 0 -5 -22 -2 -48z"/>
<path d="M3245 3750 c9 -31 25 -50 25 -29 0 7 -8 23 -16 34 -16 19 -16 19 -9
-5z"/>
<path d="M2112 3721 c-31 -54 -27 -65 4 -13 14 24 24 45 22 48 -3 2 -14 -14
-26 -35z"/>
<path d="M4990 3741 c0 -16 -66 -49 -153 -75 -47 -14 -92 -26 -100 -26 -10 0
-14 -9 -13 -25 1 -30 16 -34 16 -5 0 11 5 20 11 20 7 0 10 -13 7 -34 -3 -30
-2 -32 14 -22 10 6 14 12 8 14 -5 2 -10 14 -10 27 0 20 9 25 65 39 78 20 171
62 179 82 3 8 -1 14 -9 14 -8 0 -15 -4 -15 -9z"/>
<path d="M3342 3690 c0 -14 2 -19 5 -12 2 6 2 18 0 25 -3 6 -5 1 -5 -13z"/>
<path d="M4758 3703 c-10 -2 -18 -8 -18 -13 0 -5 14 -4 30 1 45 16 36 25 -12
12z"/>
<path d="M1821 3674 c-12 -15 -21 -32 -21 -38 0 -6 6 -2 12 9 6 11 18 28 26
38 8 9 12 17 9 17 -3 0 -15 -12 -26 -26z"/>
<path d="M2660 3647 c0 -48 -17 -100 -31 -92 -4 3 -11 0 -15 -6 -4 -8 -3 -9 4
-5 7 4 12 3 12 -3 0 -16 -77 -72 -128 -92 -41 -17 -43 -19 -12 -13 111 20 193
114 183 209 -7 56 -13 57 -13 2z"/>
<path d="M2210 3645 c-11 -13 -10 -14 4 -9 9 3 16 10 16 15 0 13 -6 11 -20 -6z"/>
<path d="M4610 3650 c0 -5 5 -10 11 -10 5 0 7 5 4 10 -3 6 -8 10 -11 10 -2 0
-4 -4 -4 -10z"/>
<path d="M4837 3625 c-51 -35 -47 -42 6 -10 78 45 78 26 0 -58 -41 -43 -49
-54 -26 -38 42 29 93 91 93 113 0 25 -29 22 -73 -7z"/>
<path d="M2072 3610 c0 -19 2 -27 5 -17 2 9 2 25 0 35 -3 9 -5 1 -5 -18z"/>
<path d="M2200 3575 c-14 -8 -20 -14 -15 -14 6 0 21 6 35 14 14 8 21 14 15 14
-5 0 -21 -6 -35 -14z"/>
<path d="M2061 3554 c0 -11 3 -14 6 -6 3 7 2 16 -1 19 -3 4 -6 -2 -5 -13z"/>
<path d="M2136 3521 c-16 -16 -26 -35 -23 -43 4 -10 6 -10 6 1 1 8 13 28 28
43 15 15 24 28 22 28 -3 0 -18 -13 -33 -29z"/>
<path d="M3261 3500 c-7 -25 -18 -51 -23 -58 -6 -7 -8 -15 -5 -19 9 -8 49 87
45 106 -2 9 -9 -4 -17 -29z"/>
<path d="M4577 3523 c-11 -10 -8 -43 3 -43 6 0 10 11 10 25 0 26 -2 29 -13 18z"/>
<path d="M2072 3500 c0 -14 2 -19 5 -12 2 6 2 18 0 25 -3 6 -5 1 -5 -13z"/>
<path d="M2031 3505 c1 -19 18 -51 18 -35 0 8 -4 22 -9 30 -5 8 -9 11 -9 5z"/>
<path d="M4694 3488 c-15 -13 -25 -17 -21 -10 6 8 3 10 -10 5 -25 -9 -60 -33
-47 -33 5 0 15 5 21 11 8 8 16 7 31 -2 18 -11 27 -10 57 4 31 15 35 20 25 32
-16 20 -22 19 -56 -7z"/>
<path d="M2265 3490 c-3 -6 1 -7 9 -4 18 7 21 14 7 14 -6 0 -13 -4 -16 -10z"/>
<path d="M2213 3448 c-40 -41 -53 -76 -62 -157 -6 -53 -5 -60 6 -45 7 10 13
40 13 66 0 54 18 98 58 141 14 15 24 27 21 27 -3 0 -19 -15 -36 -32z"/>
<path d="M4915 3464 c21 -8 42 -19 46 -25 3 -6 15 -9 25 -7 14 3 5 10 -30 26
-27 12 -56 22 -65 21 -9 0 2 -7 24 -15z"/>
<path d="M4913 3423 c9 -2 23 -2 30 0 6 3 -1 5 -18 5 -16 0 -22 -2 -12 -5z"/>
<path d="M4530 3410 c0 -5 5 -10 11 -10 5 0 7 5 4 10 -3 6 -8 10 -11 10 -2 0
-4 -4 -4 -10z"/>
<path d="M4843 3413 c9 -2 25 -2 35 0 9 3 1 5 -18 5 -19 0 -27 -2 -17 -5z"/>
<path d="M4788 3403 c6 -2 18 -2 25 0 6 3 1 5 -13 5 -14 0 -19 -2 -12 -5z"/>
<path d="M3249 3374 c-13 -14 -40 -34 -59 -45 l-35 -18 33 6 c22 4 32 2 32 -7
0 -19 75 -5 132 25 l48 24 35 -37 c19 -20 35 -39 34 -42 0 -3 -21 -18 -47 -35
-26 -16 -56 -44 -67 -61 -11 -18 -27 -32 -35 -31 -8 0 -36 -3 -62 -7 -37 -5
-48 -4 -48 6 0 7 -10 -7 -22 -31 -11 -24 -35 -52 -52 -62 -17 -10 -26 -19 -19
-19 6 0 29 15 52 34 32 27 53 35 99 41 53 6 64 12 114 58 30 29 67 59 82 67
25 13 29 13 38 -4 6 -10 19 -27 29 -37 11 -11 19 -21 19 -23 0 -3 -27 -21 -60
-41 -33 -20 -67 -46 -75 -58 -13 -19 -17 -20 -25 -7 -5 8 -10 11 -10 7 0 -15
75 -99 102 -113 38 -20 58 -17 28 4 -14 9 -38 29 -53 44 l-28 26 33 25 c18 14
56 39 85 56 l51 31 36 -21 c19 -11 40 -18 46 -14 7 4 -1 14 -19 23 -16 10 -47
27 -69 39 -23 13 -69 58 -108 109 -73 91 -108 114 -173 114 -27 0 -44 -7 -62
-26z m101 3 c0 -12 -121 -60 -130 -51 -8 8 50 48 79 55 42 10 51 10 51 -4z"/>
<path d="M2075 3339 c0 -27 3 -49 6 -49 13 0 16 65 5 81 -9 13 -11 7 -11 -32z"/>
<path d="M4565 3343 c-5 -16 -9 -156 -10 -313 -2 -223 -6 -302 -19 -365 -23
-107 -82 -295 -101 -322 -9 -13 -11 -23 -6 -23 27 0 107 247 132 410 9 57 20
640 13 640 -1 0 -5 -12 -9 -27z"/>
<path d="M2202 3300 c0 -14 2 -19 5 -12 2 6 2 18 0 25 -3 6 -5 1 -5 -13z"/>
<path d="M2720 3292 c0 -4 37 -48 82 -96 l82 -89 -117 5 c-92 4 -117 3 -117
-8 0 -23 18 -26 150 -25 108 0 137 -3 172 -19 24 -11 63 -19 88 -19 l45 1 -49
9 c-65 10 -133 59 -234 164 -73 77 -102 99 -102 77z"/>
<path d="M2062 3242 l-23 -37 26 28 c14 15 25 32 25 38 0 14 -3 11 -28 -29z"/>
<path d="M2960 3267 c0 -16 21 -47 33 -47 8 0 9 3 1 8 -6 4 -16 16 -22 27 -6
11 -12 16 -12 12z"/>
<path d="M3212 3190 c0 -14 2 -19 5 -12 2 6 2 18 0 25 -3 6 -5 1 -5 -13z"/>
<path d="M1931 3186 c2 -2 18 -6 34 -10 22 -5 26 -4 15 4 -14 9 -59 15 -49 6z"/>
<path d="M2155 3159 c-4 -6 -5 -12 -2 -15 2 -3 7 2 10 11 7 17 1 20 -8 4z"/>
<path d="M2038 3083 c7 -3 16 -2 19 1 4 3 -2 6 -13 5 -11 0 -14 -3 -6 -6z"/>
<path d="M3235 2984 c-171 -30 -375 -47 -503 -43 -86 3 -102 2 -100 -11 4 -21
41 -28 148 -29 242 -2 604 54 618 97 5 15 -2 15 -163 -14z"/>
<path d="M3636 2926 c21 -15 30 -14 19 3 -3 6 -14 11 -23 11 -13 0 -13 -2 4
-14z"/>
<path d="M3518 2913 c7 -3 16 -2 19 1 4 3 -2 6 -13 5 -11 0 -14 -3 -6 -6z"/>
<path d="M3670 2889 c0 -12 -21 -47 -46 -78 l-46 -56 51 55 c29 32 51 64 51
78 0 12 -2 22 -5 22 -3 0 -5 -10 -5 -21z"/>
<path d="M3393 2798 c0 -24 -1 -60 -3 -80 -4 -36 -7 -38 -56 -53 -29 -8 -55
-15 -58 -15 -3 0 -6 18 -6 39 0 39 -16 98 -25 89 -2 -2 0 -21 6 -42 14 -51 4
-91 -27 -105 -33 -15 -33 -15 -27 12 5 22 5 22 -10 2 -9 -11 -11 -22 -6 -26 5
-3 -9 -12 -31 -19 -39 -13 -57 -26 -48 -36 3 -2 29 9 59 25 30 16 97 41 150
56 l95 28 3 83 c1 46 -2 84 -7 84 -5 0 -9 -19 -9 -42z"/>
<path d="M3178 2815 c-108 -30 -577 -48 -562 -22 6 8 3 8 -9 -1 -15 -13 -15
-15 0 -30 14 -15 45 -17 217 -17 170 -1 208 2 246 17 25 10 77 29 115 42 75
26 71 32 -7 11z"/>
<path d="M2228 2803 c12 -2 32 -2 45 0 12 2 2 4 -23 4 -25 0 -35 -2 -22 -4z"/>
<path d="M3342 2798 c-11 -15 -32 -85 -32 -110 0 -10 5 -18 10 -18 6 0 10 19
10 43 0 23 7 54 14 70 16 29 15 35 -2 15z"/>
<path d="M3945 2793 c16 -3 33 -10 37 -16 5 -8 8 -6 8 6 0 13 -8 17 -37 16
-35 -2 -35 -2 -8 -6z"/>
<path d="M3768 2773 c7 -3 16 -2 19 1 4 3 -2 6 -13 5 -11 0 -14 -3 -6 -6z"/>
<path d="M4000 2749 c0 -38 -55 -91 -186 -179 l-131 -88 0 56 c0 32 -5 68 -11
82 -8 20 -10 6 -10 -62 1 -83 -9 -118 -33 -118 -17 0 -10 139 10 195 23 64 19
71 -7 18 -26 -53 -33 -85 -33 -163 l0 -69 -97 -55 c-54 -31 -132 -70 -175 -87
-43 -17 -76 -33 -74 -35 3 -3 124 37 142 47 6 4 37 21 70 39 33 18 98 58 145
89 334 221 400 275 400 326 0 14 -2 25 -5 25 -3 0 -5 -9 -5 -21z"/>
<path d="M2428 2748 c29 -14 29 -31 0 -22 -20 6 -21 5 -10 -9 8 -9 11 -22 7
-29 -4 -7 2 -2 13 11 21 26 52 24 52 -4 0 -8 5 -15 10 -15 6 0 10 4 10 8 0 18
-75 73 -97 71 -4 0 2 -5 15 -11z"/>
<path d="M3206 2744 c-4 -9 -4 -19 -1 -22 2 -3 7 3 11 12 4 9 4 19 1 22 -2 3
-7 -3 -11 -12z"/>
<path d="M3540 2735 c-6 -8 -27 -20 -46 -27 -29 -10 -47 -28 -29 -28 17 0 83
41 88 55 8 19 3 19 -13 0z"/>
<path d="M2800 2696 c0 -4 7 -17 16 -30 10 -16 12 -26 5 -31 -14 -8 -14 -35 0
-35 5 0 7 5 4 11 -4 5 -1 18 7 27 13 15 11 20 -9 41 -13 13 -23 21 -23 17z"/>
<path d="M3066 2691 c-13 -20 -25 -61 -18 -61 4 0 12 16 18 35 11 34 11 44 0
26z"/>
<path d="M2740 2670 c-8 -5 -10 -10 -5 -10 6 0 17 5 25 10 8 5 11 10 5 10 -5
0 -17 -5 -25 -10z"/>
<path d="M2400 2648 c-12 -22 -12 -22 6 -6 10 10 15 20 12 24 -4 3 -12 -5 -18
-18z"/>
<path d="M2520 2642 c0 -6 9 -16 21 -22 11 -7 18 -18 15 -25 -4 -11 1 -12 25
-3 16 5 31 14 34 19 7 10 -43 24 -52 15 -4 -3 -15 1 -25 11 -10 9 -18 11 -18
5z"/>
<path d="M1879 2562 c-114 -119 -180 -202 -175 -220 2 -10 7 -29 10 -43 9 -40
172 -174 235 -194 13 -4 50 -26 81 -49 63 -45 67 -48 155 -104 70 -45 206
-135 285 -189 30 -21 82 -65 114 -98 l59 -60 -54 -17 c-30 -9 -49 -17 -42 -17
10 -1 114 20 121 24 1 1 -28 35 -65 75 -64 68 -204 172 -347 256 -42 25 -259
169 -364 243 -98 69 -161 124 -170 150 -9 26 -7 35 13 65 26 38 26 38 144 160
46 48 81 89 79 91 -2 3 -38 -30 -79 -73z"/>
<path d="M2419 2613 c-12 -16 -12 -17 1 -6 8 6 26 13 40 16 l25 4 -26 2 c-15
0 -33 -7 -40 -16z"/>
<path d="M3380 2614 c60 -8 128 -8 123 -1 -2 4 -37 6 -76 6 -40 -1 -61 -3 -47
-5z"/>
<path d="M2349 2583 l-24 -28 28 24 c15 14 27 26 27 28 0 8 -8 1 -31 -24z"/>
<path d="M3328 2603 c7 -3 16 -2 19 1 4 3 -2 6 -13 5 -11 0 -14 -3 -6 -6z"/>
<path d="M2910 2590 c0 -5 5 -10 10 -10 6 0 10 5 10 10 0 6 -4 10 -10 10 -5 0
-10 -4 -10 -10z"/>
<path d="M2808 2584 c-4 -3 -4 -57 -1 -120 7 -125 2 -138 -48 -149 -17 -4 -28
-9 -25 -12 3 -3 19 -1 35 5 l31 11 0 -42 c0 -63 2 -76 16 -81 8 -3 11 -19 10
-41 -2 -23 1 -34 8 -32 6 2 12 22 13 45 2 33 -1 42 -13 42 -10 0 -14 6 -10 15
3 8 -1 18 -8 22 -12 7 -12 18 0 73 7 36 14 82 14 102 0 29 6 41 24 54 30 19
109 39 191 49 33 4 55 10 48 12 -7 2 -9 12 -6 21 5 16 5 16 -8 0 -8 -9 -35
-18 -64 -21 -27 -3 -77 -14 -110 -26 -32 -12 -60 -21 -62 -21 -1 0 -5 17 -9
38 -8 44 -18 65 -26 56z"/>
<path d="M2505 2570 c-8 -13 5 -13 25 0 13 8 13 10 -2 10 -9 0 -20 -4 -23 -10z"/>
<path d="M3550 2564 c0 -36 -133 -182 -214 -235 -33 -22 -63 -39 -67 -39 -4 0
-36 -13 -72 -30 -35 -16 -100 -43 -145 -59 -148 -55 -213 -95 -211 -132 1 -24
1 -24 12 3 12 31 82 68 217 118 141 51 232 92 290 131 57 38 160 143 160 163
0 6 9 19 20 29 17 15 29 67 15 67 -3 0 -5 -7 -5 -16z"/>
<path d="M2280 2493 c-23 -35 -25 -40 -7 -19 17 20 37 30 61 33 20 2 46 8 58
13 19 8 17 9 -12 4 -19 -3 -44 -8 -54 -11 -14 -4 -18 -1 -13 11 11 29 -1 17
-33 -31z"/>
<path d="M3142 2494 c-13 -20 -22 -40 -20 -45 2 -6 14 8 27 31 29 51 24 61 -7
14z"/>
<path d="M3238 2498 c-14 -18 -32 -47 -41 -64 -14 -28 -76 -84 -93 -84 -3 0
-4 16 -1 35 6 35 -6 48 -17 19 -11 -29 -6 -65 10 -71 20 -7 90 66 142 146 36
58 37 67 0 19z"/>
<path d="M3832 2509 c10 -30 147 -111 246 -145 98 -33 257 -62 285 -51 6 3 -2
6 -18 6 -45 1 -216 47 -302 82 -42 16 -107 50 -146 75 -38 25 -67 40 -65 33z"/>
<path d="M3000 2424 c-34 -47 -59 -91 -57 -97 2 -7 10 -1 17 13 7 14 16 27 20
30 7 6 65 92 80 120 23 44 -2 16 -60 -66z"/>
<path d="M1446 2444 c-15 -31 -25 -59 -23 -60 2 -2 14 19 27 46 13 28 24 50
24 50 1 0 33 -7 71 -15 39 -8 93 -14 120 -13 46 1 44 1 -20 8 -65 7 -117 19
-156 35 -13 5 -23 -6 -43 -51z"/>
<path d="M2930 2465 c-7 -9 -10 -18 -7 -21 3 -3 10 4 17 15 13 25 8 27 -10 6z"/>
<path d="M2170 2446 c0 -10 33 -48 150 -176 123 -133 250 -288 348 -424 41
-56 129 -60 281 -11 60 19 116 33 124 29 9 -3 25 -1 36 6 30 15 26 6 -11 -29
-18 -17 -61 -43 -96 -58 -56 -23 -63 -29 -60 -51 2 -14 10 -28 18 -30 13 -5
13 -3 2 11 -19 23 -10 32 63 67 l64 30 40 -21 c33 -17 64 -21 178 -26 76 -2
143 -6 150 -8 8 -3 3 -26 -15 -76 l-27 -71 -130 5 c-121 5 -227 25 -239 46 -3
4 4 31 14 60 11 28 20 57 20 63 0 20 -15 -4 -29 -47 -7 -22 -25 -56 -41 -75
-26 -34 -26 -35 -6 -37 12 0 46 -10 76 -21 60 -22 183 -42 261 -42 27 0 49 -5
49 -10 0 -6 -13 -40 -29 -75 l-30 -65 -81 0 c-85 0 -200 14 -260 31 -95 28
-171 69 -128 69 6 0 9 2 6 5 -3 3 -21 -2 -42 -10 -41 -17 -62 -11 -94 30 -11
14 -25 25 -32 25 -17 0 29 -60 54 -70 221 -88 292 -106 455 -116 56 -4 101
-10 101 -15 0 -4 -10 -32 -21 -63 l-22 -56 -54 0 c-80 0 -236 35 -334 74 -100
41 -277 132 -368 190 l-65 41 43 8 c24 5 41 10 39 13 -2 2 -33 -2 -69 -8 -35
-7 -56 -14 -46 -16 9 -2 17 -10 17 -17 0 -24 70 -74 190 -137 242 -126 425
-188 559 -188 33 0 61 -3 61 -7 0 -28 -65 -203 -75 -203 -7 0 -73 21 -146 46
-166 56 -367 158 -479 243 -110 82 -196 141 -239 162 l-34 16 45 27 c25 14 54
26 66 26 15 0 20 5 16 15 -7 18 -40 20 -51 2 -4 -7 -30 -29 -58 -48 -27 -18
-63 -47 -80 -63 l-30 -28 31 22 31 22 68 -41 c37 -23 111 -74 164 -114 53 -40
119 -87 146 -104 91 -58 291 -149 411 -188 66 -21 122 -41 127 -45 6 -5 -4
-50 -39 -169 -3 -10 -15 -12 -50 -6 -117 17 -314 80 -383 122 -218 134 -343
246 -450 404 -17 26 -42 54 -56 63 -25 16 -26 16 -63 -21 -21 -21 -25 -27 -9
-13 l28 25 32 -36 c18 -20 52 -65 77 -100 71 -100 144 -173 255 -253 174 -128
304 -184 527 -231 l77 -16 -6 -32 c-3 -18 -10 -36 -14 -42 -17 -17 -254 -30
-320 -16 -126 26 -328 120 -389 181 -51 51 -167 242 -195 320 -17 49 -80 146
-100 153 -21 8 -19 5 14 -45 35 -53 63 -106 96 -183 14 -33 55 -103 90 -156
71 -106 136 -166 223 -205 97 -43 246 -86 302 -87 111 -3 271 7 284 17 7 6 23
56 36 111 50 220 159 534 284 815 39 87 85 218 97 275 4 22 15 60 23 84 9 24
16 47 16 52 0 5 -35 6 -77 4 -72 -4 -76 -3 -58 11 11 9 45 28 75 44 56 29 130
80 116 80 -4 0 -22 -11 -39 -23 -18 -13 -57 -36 -87 -52 -30 -15 -77 -40 -105
-55 -27 -15 -88 -46 -134 -69 -45 -23 -81 -44 -79 -46 2 -3 40 13 83 35 77 39
83 40 182 40 57 0 103 -2 103 -5 0 -2 -9 -29 -21 -60 l-20 -55 -90 0 c-104 0
-226 17 -244 33 -10 9 -9 17 3 35 27 41 3 47 -82 20 -75 -25 -96 -23 -96 10 0
7 -5 10 -11 6 -6 -3 -8 -16 -5 -28 4 -18 -1 -24 -27 -34 -53 -19 -113 -25
-169 -17 -50 7 -56 10 -113 78 -33 39 -71 86 -84 106 -14 20 -55 73 -93 117
-37 45 -68 86 -68 91 0 6 -39 50 -86 99 -77 80 -84 91 -74 109 12 19 11 19 -6
3 -17 -17 -19 -17 -41 4 -13 12 -23 18 -23 14z"/>
<path d="M1302 2382 c4 -24 -2 -75 -13 -124 -79 -348 -78 -395 10 -466 30 -24
40 -41 49 -84 11 -47 72 -160 72 -133 0 6 -5 16 -12 23 -6 6 -25 53 -42 104
-25 74 -36 95 -57 105 -87 42 -89 120 -9 433 11 41 22 91 25 110 3 19 8 37 11
39 3 3 25 -5 50 -18 24 -13 47 -21 50 -18 8 7 -74 54 -110 63 l-29 7 5 -41z"/>
<path d="M2303 2410 c-13 -5 -23 -12 -23 -15 0 -9 16 -5 36 10 22 16 19 18
-13 5z"/>
<path d="M2876 2365 c-14 -31 -26 -67 -26 -81 0 -35 26 -41 55 -14 29 27 26
37 -4 19 -32 -21 -36 -4 -13 63 12 34 20 63 18 65 -2 2 -15 -21 -30 -52z"/>
<path d="M3720 2340 c-6 -11 -8 -20 -6 -20 3 0 10 9 16 20 6 11 8 20 6 20 -3
0 -10 -9 -16 -20z"/>
<path d="M3520 2330 c-6 -11 -8 -20 -6 -20 3 0 10 9 16 20 6 11 8 20 6 20 -3
0 -10 -9 -16 -20z"/>
<path d="M1548 2323 c6 -2 18 -2 25 0 6 3 1 5 -13 5 -14 0 -19 -2 -12 -5z"/>
<path d="M3639 2260 c-13 -16 -41 -42 -63 -57 -44 -30 -466 -244 -519 -263
-21 -8 -27 -14 -17 -18 16 -6 473 225 540 273 40 29 99 95 86 95 -3 0 -15 -13
-27 -30z"/>
<path d="M2628 2273 c7 -3 16 -2 19 1 4 3 -2 6 -13 5 -11 0 -14 -3 -6 -6z"/>
<path d="M2588 2263 c7 -3 16 -2 19 1 4 3 -2 6 -13 5 -11 0 -14 -3 -6 -6z"/>
<path d="M2548 2253 c7 -3 16 -2 19 1 4 3 -2 6 -13 5 -11 0 -14 -3 -6 -6z"/>
<path d="M3416 2233 c-10 -42 -1 -56 24 -40 23 14 27 32 6 24 -10 -4 -16 2
-18 21 -4 27 -4 27 -12 -5z"/>
<path d="M2460 2237 c-25 -6 -38 -12 -30 -14 8 -2 35 3 60 11 53 16 35 19 -30
3z"/>
<path d="M3288 2190 c-57 -54 -64 -76 -10 -29 37 32 67 69 61 72 -2 1 -25 -18
-51 -43z"/>
<path d="M3704 2218 l-19 -23 23 19 c21 18 27 26 19 26 -2 0 -12 -10 -23 -22z"/>
<path d="M3203 2202 c-29 -39 -75 -133 -69 -139 3 -3 17 -3 31 1 27 7 35 26 9
26 -21 0 -10 34 25 80 37 47 44 60 33 60 -4 0 -18 -13 -29 -28z"/>
<path d="M3120 2162 c-19 -28 -43 -53 -54 -56 -10 -2 -15 -9 -12 -15 8 -12
-83 -83 -96 -75 -16 10 -1 62 28 100 15 19 24 37 21 40 -9 9 -53 -58 -72 -109
-22 -57 -13 -72 30 -51 59 28 201 180 193 206 -2 6 -19 -12 -38 -40z"/>
<path d="M3659 2173 c-13 -16 -12 -17 4 -4 16 13 21 21 13 21 -2 0 -10 -8 -17
-17z"/>
<path d="M1818 2073 c7 -3 16 -2 19 1 4 3 -2 6 -13 5 -11 0 -14 -3 -6 -6z"/>
<path d="M1758 2063 c6 -2 18 -2 25 0 6 3 1 5 -13 5 -14 0 -19 -2 -12 -5z"/>
<path d="M1718 2053 c7 -3 16 -2 19 1 4 3 -2 6 -13 5 -11 0 -14 -3 -6 -6z"/>
<path d="M2861 2038 c-1 -18 24 -48 40 -48 5 0 4 9 -3 19 -7 11 -15 18 -19 15
-4 -2 -10 4 -12 13 -4 16 -5 16 -6 1z"/>
<path d="M1388 2013 c7 -3 16 -2 19 1 4 3 -2 6 -13 5 -11 0 -14 -3 -6 -6z"/>
<path d="M3541 1984 c0 -11 3 -14 6 -6 3 7 2 16 -1 19 -3 4 -6 -2 -5 -13z"/>
<path d="M2906 1965 c4 -11 -5 -20 -30 -30 -20 -8 -36 -18 -36 -20 0 -3 16 2
36 10 20 8 38 15 40 15 2 0 4 9 4 20 0 11 -4 20 -10 20 -5 0 -7 -7 -4 -15z"/>
<path d="M2925 1929 c-4 -6 -5 -13 -2 -16 7 -7 27 6 27 18 0 12 -17 12 -25 -2z"/>
<path d="M2758 1892 c-32 -9 -58 -19 -58 -23 0 -7 118 25 128 35 7 8 -3 6 -70
-12z"/>
<path d="M2370 1780 c-24 -8 -23 -8 8 -9 17 -1 32 4 32 9 0 11 -5 11 -40 0z"/>
<path d="M1655 1600 c-27 -7 -28 -8 -5 -8 14 0 34 3 45 8 25 11 2 11 -40 0z"/>
<path d="M2981 1594 c0 -11 3 -14 6 -6 3 7 2 16 -1 19 -3 4 -6 -2 -5 -13z"/>
<path d="M1555 1570 c-3 -6 1 -7 9 -4 18 7 21 14 7 14 -6 0 -13 -4 -16 -10z"/>
<path d="M1468 1518 c50 -96 217 -254 260 -246 12 2 -1 17 -43 49 -66 51 -154
142 -200 207 -41 57 -49 53 -17 -10z"/>
<path d="M2242 1515 c-30 -7 -56 -16 -60 -19 -7 -7 44 2 108 20 60 16 20 15
-48 -1z"/>
<path d="M2148 1483 c7 -3 16 -2 19 1 4 3 -2 6 -13 5 -11 0 -14 -3 -6 -6z"/>
<path d="M1768 1314 c-16 -8 -28 -16 -28 -18 0 -9 40 7 51 20 14 17 11 17 -23
-2z"/>
</g>
</svg>
